<mxfile host="65bd71144e">
    <diagram id="eTuNe_4K_42x5jrvcE2q" name="Page-1">
        <mxGraphModel dx="706" dy="361" grid="0" gridSize="10" guides="1" tooltips="1" connect="1" arrows="1" fold="1" page="1" pageScale="1" pageWidth="827" pageHeight="1169" math="0" shadow="0">
            <root>
                <mxCell id="0"/>
                <mxCell id="1" parent="0"/>
                <mxCell id="13" value="" style="rounded=1;whiteSpace=wrap;html=1;" parent="1" vertex="1">
                    <mxGeometry x="56" y="61" width="322" height="186" as="geometry"/>
                </mxCell>
                <mxCell id="3" style="edgeStyle=none;html=1;exitX=1;exitY=0;exitDx=0;exitDy=27.5;exitPerimeter=0;" parent="1" source="2" edge="1">
                    <mxGeometry relative="1" as="geometry">
                        <mxPoint x="244" y="133" as="targetPoint"/>
                    </mxGeometry>
                </mxCell>
                <mxCell id="2" value="DB" style="shape=cylinder3;whiteSpace=wrap;html=1;boundedLbl=1;backgroundOutline=1;size=15;" parent="1" vertex="1">
                    <mxGeometry x="79" y="105" width="60" height="80" as="geometry"/>
                </mxCell>
                <mxCell id="5" value="" style="html=1;verticalLabelPosition=bottom;align=center;labelBackgroundColor=#ffffff;verticalAlign=top;strokeWidth=2;strokeColor=#0080F0;shadow=0;dashed=0;shape=mxgraph.ios7.icons.settings;" parent="1" vertex="1">
                    <mxGeometry x="250" y="100" width="100" height="90" as="geometry"/>
                </mxCell>
                <mxCell id="6" value="JAVA,&lt;br&gt;PHP&lt;br&gt;GO&lt;br&gt;RUBY&lt;br&gt;C#" style="text;html=1;align=center;verticalAlign=middle;resizable=0;points=[];autosize=1;strokeColor=none;fillColor=none;" parent="1" vertex="1">
                    <mxGeometry x="270" y="100" width="60" height="90" as="geometry"/>
                </mxCell>
                <mxCell id="7" style="edgeStyle=none;html=1;" parent="1" edge="1">
                    <mxGeometry relative="1" as="geometry">
                        <mxPoint x="140" y="165" as="targetPoint"/>
                        <mxPoint x="240" y="165" as="sourcePoint"/>
                        <Array as="points">
                            <mxPoint x="174" y="165"/>
                        </Array>
                    </mxGeometry>
                </mxCell>
                <mxCell id="8" style="edgeStyle=none;html=1;exitX=1;exitY=0;exitDx=0;exitDy=27.5;exitPerimeter=0;entryX=0;entryY=0.323;entryDx=0;entryDy=0;entryPerimeter=0;" parent="1" target="10" edge="1">
                    <mxGeometry relative="1" as="geometry">
                        <mxPoint x="469" y="126.5" as="targetPoint"/>
                        <mxPoint x="359" y="126" as="sourcePoint"/>
                    </mxGeometry>
                </mxCell>
                <mxCell id="9" style="edgeStyle=none;html=1;entryX=1;entryY=1;entryDx=0;entryDy=-15;entryPerimeter=0;" parent="1" edge="1">
                    <mxGeometry relative="1" as="geometry">
                        <mxPoint x="361" y="172" as="targetPoint"/>
                        <mxPoint x="536" y="172" as="sourcePoint"/>
                        <Array as="points">
                            <mxPoint x="395" y="172"/>
                        </Array>
                    </mxGeometry>
                </mxCell>
                <mxCell id="10" value="" style="rounded=1;whiteSpace=wrap;html=1;" parent="1" vertex="1">
                    <mxGeometry x="539" y="80" width="120" height="144" as="geometry"/>
                </mxCell>
                <mxCell id="11" value="Html&lt;br&gt;css&lt;br&gt;JS&lt;br&gt;ANGULAR" style="text;html=1;strokeColor=none;fillColor=none;align=center;verticalAlign=middle;whiteSpace=wrap;rounded=0;" parent="1" vertex="1">
                    <mxGeometry x="569" y="127" width="60" height="30" as="geometry"/>
                </mxCell>
                <mxCell id="14" value="API (Application Prgramming Interface)" style="text;html=1;strokeColor=none;fillColor=none;align=center;verticalAlign=middle;whiteSpace=wrap;rounded=0;" parent="1" vertex="1">
                    <mxGeometry x="100" y="31" width="250" height="30" as="geometry"/>
                </mxCell>
                <mxCell id="15" value="Json" style="text;html=1;align=center;verticalAlign=middle;resizable=0;points=[];autosize=1;strokeColor=none;fillColor=none;" parent="1" vertex="1">
                    <mxGeometry x="371" y="104" width="43" height="26" as="geometry"/>
                </mxCell>
                <mxCell id="16" value="Json" style="text;html=1;align=center;verticalAlign=middle;resizable=0;points=[];autosize=1;strokeColor=none;fillColor=none;" parent="1" vertex="1">
                    <mxGeometry x="434" y="166" width="43" height="26" as="geometry"/>
                </mxCell>
                <mxCell id="17" value="" style="dashed=0;outlineConnect=0;html=1;align=center;labelPosition=center;verticalLabelPosition=bottom;verticalAlign=top;shape=mxgraph.weblogos.json_2" parent="1" vertex="1">
                    <mxGeometry x="341" y="16" width="80.4" height="25.200000000000003" as="geometry"/>
                </mxCell>
                <mxCell id="19" value="Endpoint:&lt;br&gt;https://esempio/utenti.json" style="text;html=1;strokeColor=none;fillColor=none;align=center;verticalAlign=middle;whiteSpace=wrap;rounded=0;" parent="1" vertex="1">
                    <mxGeometry x="374.75" y="183" width="161.5" height="36" as="geometry"/>
                </mxCell>
                <mxCell id="20" value="@Spring" style="text;html=1;strokeColor=none;fillColor=none;align=center;verticalAlign=middle;whiteSpace=wrap;rounded=0;" parent="1" vertex="1">
                    <mxGeometry x="79" y="217" width="60" height="30" as="geometry"/>
                </mxCell>
            </root>
        </mxGraphModel>
    </diagram>
</mxfile>